<svg width="16" height="16" viewBox="0 0 16 16" fill="none" xmlns="http://www.w3.org/2000/svg">
<g clip-path="url(#clip0_53_312)">
<path d="M12.8447 15.0155H3.24873C1.9817 15.0155 0.950928 13.987 0.950928 12.7225V3.15071C0.950928 1.88624 1.9817 0.857666 3.24873 0.857666H12.8447C14.1114 0.857666 15.1421 1.88624 15.1421 3.15071V12.7229C15.1421 13.9873 14.1114 15.0155 12.8447 15.0155ZM5.74617 12.5621H5.7491V6.4551H3.8491V12.5621H5.7458H5.74617ZM4.79781 5.62104C4.94227 5.62123 5.08535 5.59292 5.21885 5.53772C5.35235 5.48253 5.47365 5.40154 5.5758 5.29939C5.67795 5.19724 5.75894 5.07594 5.81414 4.94244C5.86933 4.80894 5.89764 4.66586 5.89745 4.5214C5.89687 4.22994 5.78083 3.95058 5.57473 3.74449C5.36864 3.53839 5.08928 3.42235 4.79781 3.42177C4.5062 3.42187 4.22656 3.53775 4.02036 3.74395C3.81416 3.95015 3.69828 4.22979 3.69818 4.5214C3.69828 4.81301 3.81416 5.09265 4.02036 5.29885C4.22656 5.50505 4.5062 5.62094 4.79781 5.62104ZM12.8557 12.5624V9.21444C12.8557 7.56939 12.4985 6.30382 10.5791 6.30382C9.65642 6.30382 9.03701 6.80932 8.78243 7.28917H8.75679V6.4551H6.93737V12.5621H8.83408V9.54008C8.83408 8.74301 8.98536 7.97195 9.97327 7.97195C10.9447 7.97195 10.959 8.88331 10.959 9.59137V12.5621H12.8557V12.5624Z" fill="black"/>
</g>
<defs>
<clipPath id="clip0_53_312">
<rect width="14.2857" height="14.2857" fill="white" transform="translate(0.856934 0.85791)"/>
</clipPath>
</defs>
</svg>
