<svg width="18" height="18" viewBox="0 0 18 18" fill="none" xmlns="http://www.w3.org/2000/svg">
<path d="M8.99979 1.85693C10.9405 1.85693 11.1826 1.86408 11.9441 1.89979C12.7048 1.9355 13.2226 2.05479 13.6784 2.23193C14.1498 2.41336 14.5469 2.65908 14.9441 3.05551C15.3073 3.41257 15.5883 3.8445 15.7676 4.32122C15.9441 4.77622 16.0641 5.29479 16.0998 6.0555C16.1334 6.81693 16.1426 7.05908 16.1426 8.99979C16.1426 10.9405 16.1355 11.1826 16.0998 11.9441C16.0641 12.7048 15.9441 13.2226 15.7676 13.6784C15.5888 14.1553 15.3077 14.5874 14.9441 14.9441C14.5869 15.3072 14.155 15.5882 13.6784 15.7676C13.2234 15.9441 12.7048 16.0641 11.9441 16.0998C11.1826 16.1334 10.9405 16.1426 8.99979 16.1426C7.05908 16.1426 6.81693 16.1355 6.0555 16.0998C5.29479 16.0641 4.77693 15.9441 4.32122 15.7676C3.84431 15.5887 3.41231 15.3076 3.05551 14.9441C2.69222 14.5871 2.41117 14.1551 2.23193 13.6784C2.05479 13.2234 1.9355 12.7048 1.89979 11.9441C1.86622 11.1826 1.85693 10.9405 1.85693 8.99979C1.85693 7.05908 1.86408 6.81693 1.89979 6.0555C1.9355 5.29408 2.05479 4.77693 2.23193 4.32122C2.41067 3.8442 2.69179 3.41216 3.05551 3.05551C3.41241 2.6921 3.84438 2.41103 4.32122 2.23193C4.77693 2.05479 5.29408 1.9355 6.0555 1.89979C6.81693 1.86622 7.05908 1.85693 8.99979 1.85693ZM8.99979 5.42836C8.05259 5.42836 7.14418 5.80464 6.47441 6.47441C5.80464 7.14418 5.42836 8.05259 5.42836 8.99979C5.42836 9.94699 5.80464 10.8554 6.47441 11.5252C7.14418 12.1949 8.05259 12.5712 8.99979 12.5712C9.94699 12.5712 10.8554 12.1949 11.5252 11.5252C12.1949 10.8554 12.5712 9.94699 12.5712 8.99979C12.5712 8.05259 12.1949 7.14418 11.5252 6.47441C10.8554 5.80464 9.94699 5.42836 8.99979 5.42836V5.42836ZM13.6426 5.24979C13.6426 5.01299 13.5486 4.78589 13.3811 4.61845C13.2137 4.451 12.9866 4.35693 12.7498 4.35693C12.513 4.35693 12.2859 4.451 12.1184 4.61845C11.951 4.78589 11.8569 5.01299 11.8569 5.24979C11.8569 5.48659 11.951 5.71369 12.1184 5.88114C12.2859 6.04858 12.513 6.14265 12.7498 6.14265C12.9866 6.14265 13.2137 6.04858 13.3811 5.88114C13.5486 5.71369 13.6426 5.48659 13.6426 5.24979ZM8.99979 6.85693C9.56811 6.85693 10.1132 7.0827 10.515 7.48456C10.9169 7.88643 11.1426 8.43147 11.1426 8.99979C11.1426 9.56811 10.9169 10.1132 10.515 10.515C10.1132 10.9169 9.56811 11.1426 8.99979 11.1426C8.43147 11.1426 7.88643 10.9169 7.48456 10.515C7.0827 10.1132 6.85693 9.56811 6.85693 8.99979C6.85693 8.43147 7.0827 7.88643 7.48456 7.48456C7.88643 7.0827 8.43147 6.85693 8.99979 6.85693V6.85693Z" fill="black"/>
</svg>
