<svg width="18" height="18" viewBox="0 0 18 18" fill="none" xmlns="http://www.w3.org/2000/svg">
<path fill-rule="evenodd" clip-rule="evenodd" d="M16.5007 3.64164C16.5007 2.45771 15.5418 1.49878 14.3579 1.49878H3.64359C2.45966 1.49878 1.50073 2.45771 1.50073 3.64164V14.3559C1.50073 15.5399 2.45966 16.4988 3.64359 16.4988H14.3579C15.5418 16.4988 16.5007 15.5399 16.5007 14.3559V3.64164Z" fill="black"/>
<path d="M4.46587 13.3599H5.5373L8.39801 10.1081L10.8864 13.3545H13.7953L9.97837 8.30807L13.2087 4.63843H12.1373L9.48283 7.6545L7.20605 4.64111H4.20337L7.89712 9.45986L4.46319 13.3625L4.46587 13.3599ZM5.83462 5.442H6.80962L12.1828 12.5509H11.2855L5.8373 5.442H5.83462Z" fill="white"/>
</svg>
